<?xml version="1.0" encoding="UTF-8"?><svg id="Layer_1" xmlns="http://www.w3.org/2000/svg" viewBox="0 0 143.15 68.68"><defs><style>.cls-1{stroke-dasharray:0 0 .66 .66;stroke-width:.98px;}.cls-1,.cls-2{stroke:#929497;}.cls-1,.cls-2,.cls-3,.cls-4,.cls-5,.cls-6,.cls-7,.cls-8{stroke-miterlimit:10;}.cls-1,.cls-2,.cls-3,.cls-6{fill:none;}.cls-9{fill:#cececd;}.cls-2{stroke-width:.66px;}.cls-3,.cls-6{stroke:#a7a9ac;}.cls-3,.cls-7,.cls-8{stroke-width:1.31px;}.cls-4,.cls-5{stroke-width:3.93px;}.cls-4,.cls-7{fill:#d2625e;stroke:#d2625e;}.cls-5,.cls-8{fill:#5779a5;stroke:#5779a5;}.cls-6{stroke-width:2.62px;}</style></defs><g><circle class="cls-6" cx="34.34" cy="34.34" r="20.27"/><line class="cls-3" x1="34.34" y1="14.07" x2="34.34" y2="10"/><circle class="cls-8" cx="34.34" cy="5.33" r="4.67"/><line class="cls-3" x1="54.61" y1="34.34" x2="58.68" y2="34.34"/><circle class="cls-8" cx="63.35" cy="34.34" r="4.67"/><line class="cls-3" x1="14.07" y1="34.34" x2="10" y2="34.34"/><circle class="cls-8" cx="5.33" cy="34.34" r="4.67"/><line class="cls-3" x1="34.34" y1="54.61" x2="34.34" y2="58.68"/><circle class="cls-8" cx="34.34" cy="63.35" r="4.67"/><line class="cls-3" x1="48.58" y1="20.01" x2="51.46" y2="17.13"/><circle class="cls-9" cx="54.76" cy="13.83" r="4.67"/><line class="cls-3" x1="19.98" y1="20.01" x2="17.1" y2="17.13"/><circle class="cls-9" cx="13.79" cy="13.83" r="4.67"/><line class="cls-3" x1="19.94" y1="48.65" x2="17.06" y2="51.53"/><circle class="cls-9" cx="13.76" cy="54.84" r="4.67"/><line class="cls-3" x1="48.72" y1="48.75" x2="51.6" y2="51.63"/><circle class="cls-9" cx="54.9" cy="54.94" r="4.67"/><path class="cls-1" d="M36.62,51.26h-4.63c-2.35,0-6.23-1.39-8.21-3.38-.91-.92-1.29-2.24-1.08-3.51l3.38-21.03c0-3.25,2.66-5.91,5.91-5.91h4.63c3.25,0,5.91,2.66,5.91,5.91l3.5,21.74c0,3.25-6.16,6.18-9.41,6.18Z"/><path class="cls-2" d="M31.34,23l1.44,4.06c.73,2.04,.67,4.28-.16,6.29l-1.51,3.67c-.69,1.67-.86,3.51-.49,5.27l.71,3.39"/><path class="cls-2" d="M37.16,23l1.44,4.06c.73,2.04,.67,4.28-.16,6.29l-1.51,3.67c-.69,1.67-.86,3.51-.49,5.27l.71,3.39"/><path class="cls-5" d="M38.3,25.42c.73,2.04,.63,6.09-.2,8.1l-1.51,3.67"/><path class="cls-5" d="M32.24,26.72c.73,2.04,.67,4.28-.16,6.29l-1.51,3.67"/></g><g><circle class="cls-6" cx="108.81" cy="34.34" r="20.27"/><line class="cls-3" x1="108.81" y1="14.07" x2="108.81" y2="10"/><circle class="cls-7" cx="108.81" cy="5.33" r="4.67"/><line class="cls-3" x1="129.08" y1="34.34" x2="133.15" y2="34.34"/><circle class="cls-7" cx="137.82" cy="34.34" r="4.67"/><line class="cls-3" x1="88.54" y1="34.34" x2="84.47" y2="34.34"/><circle class="cls-7" cx="79.8" cy="34.34" r="4.67"/><line class="cls-3" x1="108.81" y1="54.61" x2="108.81" y2="58.68"/><circle class="cls-7" cx="108.81" cy="63.35" r="4.67"/><line class="cls-3" x1="123.05" y1="20.01" x2="125.93" y2="17.13"/><circle class="cls-9" cx="129.23" cy="13.83" r="4.67"/><line class="cls-3" x1="94.44" y1="20.01" x2="91.56" y2="17.13"/><circle class="cls-9" cx="88.26" cy="13.83" r="4.67"/><line class="cls-3" x1="94.41" y1="48.65" x2="91.53" y2="51.53"/><circle class="cls-9" cx="88.23" cy="54.84" r="4.67"/><line class="cls-3" x1="123.19" y1="48.75" x2="126.07" y2="51.63"/><circle class="cls-9" cx="129.37" cy="54.94" r="4.67"/><path class="cls-1" d="M111.09,51.26h-4.63c-2.35,0-6.23-1.39-8.21-3.38-.91-.92-1.29-2.24-1.08-3.51l3.38-21.03c0-3.25,2.66-5.91,5.91-5.91h4.63c3.25,0,5.91,2.66,5.91,5.91l3.5,21.74c0,3.25-6.16,6.18-9.41,6.18Z"/><path class="cls-2" d="M105.81,23l1.44,4.06c.73,2.04,.67,4.28-.16,6.29l-1.51,3.67c-.69,1.67-.86,3.51-.49,5.27l.71,3.39"/><path class="cls-2" d="M111.62,23l1.44,4.06c.73,2.04,.67,4.28-.16,6.29l-1.51,3.67c-.69,1.67-.86,3.51-.49,5.27l.71,3.39"/><path class="cls-4" d="M112.77,25.42c.73,2.04,.63,6.09-.2,8.1l-1.51,3.67"/><path class="cls-4" d="M106.71,26.72c.73,2.04,.67,4.28-.16,6.29l-1.51,3.67"/></g></svg>