<?xml version="1.0" encoding="UTF-8"?><svg id="Layer_1" xmlns="http://www.w3.org/2000/svg" viewBox="0 0 269.29 176.38"><defs><style>.cls-1{stroke-width:1.1px;}.cls-1,.cls-2,.cls-3,.cls-4,.cls-5,.cls-6,.cls-7,.cls-8{stroke-miterlimit:10;}.cls-1,.cls-4,.cls-7,.cls-8{fill:none;}.cls-1,.cls-7{stroke:#929497;}.cls-2,.cls-3{stroke-width:6.58px;}.cls-2,.cls-5{fill:#d2625e;stroke:#d2625e;}.cls-3,.cls-6{fill:#5779a5;stroke:#5779a5;}.cls-9{fill:#cececd;}.cls-4{stroke-width:4.39px;}.cls-4,.cls-8{stroke:#a7a9ac;}.cls-5,.cls-6,.cls-8{stroke-width:2.19px;}.cls-7{stroke-dasharray:0 0 1.1 1.1;stroke-width:1.65px;}</style></defs><g><circle class="cls-4" cx="75.64" cy="84.52" r="33.93"/><line class="cls-8" x1="75.64" y1="50.59" x2="75.64" y2="43.78"/><circle class="cls-6" cx="75.64" cy="35.96" r="7.82"/><line class="cls-8" x1="109.57" y1="84.52" x2="116.38" y2="84.52"/><circle class="cls-6" cx="124.2" cy="84.52" r="7.82"/><line class="cls-8" x1="41.71" y1="84.52" x2="34.89" y2="84.52"/><circle class="cls-6" cx="27.07" cy="84.52" r="7.82"/><line class="cls-8" x1="75.64" y1="118.45" x2="75.64" y2="125.27"/><circle class="cls-6" cx="75.64" cy="133.09" r="7.82"/><line class="cls-8" x1="99.48" y1="60.54" x2="104.3" y2="55.72"/><circle class="cls-9" cx="109.82" cy="50.19" r="7.82"/><line class="cls-8" x1="51.59" y1="60.54" x2="46.77" y2="55.72"/><circle class="cls-9" cx="41.24" cy="50.19" r="7.82"/><line class="cls-8" x1="51.54" y1="108.48" x2="46.72" y2="113.3"/><circle class="cls-9" cx="41.19" cy="118.83" r="7.82"/><line class="cls-8" x1="99.7" y1="108.65" x2="104.52" y2="113.47"/><circle class="cls-9" cx="110.05" cy="119" r="7.82"/><path class="cls-7" d="M79.46,112.84h-7.76c-3.93,0-10.43-2.32-13.74-5.66-1.52-1.54-2.15-3.75-1.81-5.88l5.66-35.2c0-5.44,4.45-9.89,9.89-9.89h7.76c5.44,0,9.89,4.45,9.89,9.89l5.87,36.39c0,5.44-10.32,10.35-15.75,10.35Z"/><path class="cls-1" d="M70.61,65.54l2.42,6.8c1.22,3.42,1.12,7.17-.26,10.52l-2.53,6.14c-1.15,2.79-1.44,5.87-.82,8.83l1.19,5.68"/><path class="cls-1" d="M80.35,65.54l2.42,6.8c1.22,3.42,1.12,7.17-.26,10.52l-2.53,6.14c-1.15,2.79-1.44,5.87-.82,8.83l1.19,5.68"/><path class="cls-3" d="M82.27,69.59c1.22,3.42,1.05,10.2-.33,13.55l-2.53,6.14"/><path class="cls-3" d="M72.13,71.77c1.22,3.42,1.12,7.17-.26,10.52l-2.53,6.14"/></g><g><circle class="cls-4" cx="200.29" cy="84.52" r="33.93"/><line class="cls-8" x1="200.29" y1="50.59" x2="200.29" y2="43.78"/><circle class="cls-5" cx="200.29" cy="35.96" r="7.82"/><line class="cls-8" x1="234.22" y1="84.52" x2="241.04" y2="84.52"/><circle class="cls-5" cx="248.85" cy="84.52" r="7.82"/><line class="cls-8" x1="166.36" y1="84.52" x2="159.54" y2="84.52"/><circle class="cls-5" cx="151.73" cy="84.52" r="7.82"/><line class="cls-8" x1="200.29" y1="118.45" x2="200.29" y2="125.27"/><circle class="cls-5" cx="200.29" cy="133.09" r="7.82"/><line class="cls-8" x1="224.13" y1="60.54" x2="228.95" y2="55.72"/><circle class="cls-9" cx="234.48" cy="50.19" r="7.82"/><line class="cls-8" x1="176.24" y1="60.54" x2="171.42" y2="55.72"/><circle class="cls-9" cx="165.9" cy="50.19" r="7.82"/><line class="cls-8" x1="176.19" y1="108.48" x2="171.37" y2="113.3"/><circle class="cls-9" cx="165.84" cy="118.83" r="7.82"/><line class="cls-8" x1="224.35" y1="108.65" x2="229.17" y2="113.47"/><circle class="cls-9" cx="234.7" cy="119" r="7.82"/><path class="cls-7" d="M204.11,112.84h-7.76c-3.93,0-10.43-2.32-13.74-5.66-1.52-1.54-2.15-3.75-1.81-5.88l5.66-35.2c0-5.44,4.45-9.89,9.89-9.89h7.76c5.44,0,9.89,4.45,9.89,9.89l5.87,36.39c0,5.44-10.32,10.35-15.75,10.35Z"/><path class="cls-1" d="M195.26,65.54l2.42,6.8c1.22,3.42,1.12,7.17-.26,10.52l-2.53,6.14c-1.15,2.79-1.44,5.87-.82,8.83l1.19,5.68"/><path class="cls-1" d="M205,65.54l2.42,6.8c1.22,3.42,1.12,7.17-.26,10.52l-2.53,6.14c-1.15,2.79-1.44,5.87-.82,8.83l1.19,5.68"/><path class="cls-2" d="M206.93,69.59c1.22,3.42,1.05,10.2-.33,13.55l-2.53,6.14"/><path class="cls-2" d="M196.78,71.77c1.22,3.42,1.12,7.17-.26,10.52l-2.53,6.14"/></g></svg>